M48
; DRILL file {KiCad 9.0.7} date 2026-06-06T22:07:31+0100
; FORMAT={-:-/ absolute / metric / decimal}
; #@! TF.CreationDate,2026-06-06T22:07:31+01:00
; #@! TF.GenerationSoftware,Kicad,Pcbnew,9.0.7
; #@! TF.FileFunction,MixedPlating,1,2
FMAT,2
METRIC
; #@! TA.AperFunction,Plated,PTH,ViaDrill
T1C0.300
; #@! TA.AperFunction,Plated,PTH,ComponentDrill
T2C0.800
; #@! TA.AperFunction,Plated,PTH,ComponentDrill
T3C1.000
; #@! TA.AperFunction,NonPlated,NPTH,ComponentDrill
T4C3.200
%
G90
G05
T1
X144.075Y-68.8
T2
X139.9Y-68.025
X139.9Y-70.525
X142.05Y-68.025
X142.05Y-70.525
T3
X135.735Y-68.55
X135.735Y-71.09
X135.735Y-73.63
X135.735Y-76.17
X135.735Y-78.71
X135.735Y-81.25
X135.735Y-83.79
X135.735Y-86.33
X137.191Y-64.477
X137.191Y-122.897
X139.731Y-64.477
X139.731Y-122.897
X142.271Y-64.477
X142.271Y-122.897
X144.811Y-64.477
X144.811Y-122.897
X147.351Y-64.477
X147.351Y-122.897
X149.891Y-64.477
X149.891Y-122.897
X150.975Y-68.55
X150.975Y-71.09
X150.975Y-73.63
X150.975Y-76.17
X150.975Y-78.71
X150.975Y-81.25
X150.975Y-83.79
X150.975Y-86.33
T4
X128.95Y-65.475
X128.95Y-121.475
X156.95Y-65.475
X156.95Y-121.475
M30
